<?xml version="1.0" encoding="UTF-8"?>
<svg version="1.1" xmlns="http://www.w3.org/2000/svg" width="2028" height="1121">
<path d="M0 0 C669.24 0 1338.48 0 2028 0 C2028 369.93 2028 739.86 2028 1121 C1358.76 1121 689.52 1121 0 1121 C0 751.07 0 381.14 0 0 Z " fill="#000000" transform="translate(0,0)"/>
<path d="M0 0 C13.12689136 -0.03819444 26.25376461 -0.06940123 39.38069852 -0.0888553 C45.67202801 -0.09828736 51.96330881 -0.11080464 58.25461097 -0.13189731 C64.00948657 -0.15103954 69.76429824 -0.16075869 75.51920457 -0.1629158 C77.59688232 -0.16530738 79.67455955 -0.17109309 81.75221677 -0.18063269 C84.57455577 -0.19306475 87.39663454 -0.19300203 90.21899314 -0.18986354 C91.02173105 -0.19636804 91.82446895 -0.20287254 92.65153225 -0.20957414 C113.56354708 -0.11685164 135.03704502 9.65095594 149.77053733 24.20819249 C168.16981099 43.20943385 175.15948744 64.89008131 174.78225608 91.10662999 C174.16661286 110.03464118 166.30292806 127.12821655 153.51663108 141.04412999 C152.76897483 141.88330968 152.02131858 142.72248937 151.25100608 143.58709874 C140.72251037 154.81183368 125.62500181 163.53784773 110.51663108 167.04412999 C108.85056764 167.08896739 107.18238543 167.0992682 105.51663108 167.04412999 C111.59175984 174.21317261 117.96630184 181.08333014 125.14163108 187.16912999 C129.99253245 191.31869622 134.42013282 195.89609506 138.88625999 200.45086827 C141.98965328 203.59687484 145.13219772 206.62454437 148.48147483 209.50897374 C152.72874097 213.17112051 156.65369527 217.10504606 160.57913108 221.10662999 C164.44424526 225.04628831 168.29048381 228.91796157 172.51272483 232.47772374 C173.50401389 233.3246378 174.49530296 234.17155187 175.51663108 235.04412999 C175.51663108 235.37412999 175.51663108 235.70412999 175.51663108 236.04412999 C169.11256484 236.24782225 162.70934007 236.38741716 156.30276389 236.48358312 C154.12601409 236.52368965 151.94947813 236.57819148 149.77346702 236.64764562 C146.63523445 236.74526676 143.49986059 236.79018375 140.36038108 236.82537999 C138.91302574 236.88731541 138.91302574 236.88731541 137.43643089 236.95050206 C133.30410591 236.9532151 130.58359382 236.83485569 127.19875999 234.32635655 C125.18608394 232.31136442 123.36127632 230.21184357 121.51663108 228.04412999 C120.26695911 226.91606911 118.99870547 225.80786349 117.70413108 224.73162999 C114.31467503 221.82162548 111.15211655 218.72253057 108.01663108 215.54412999 C104.94273253 212.4283313 101.84960917 209.38535721 98.51663108 206.54412999 C94.66541039 203.26112219 91.13374248 199.69008487 87.58303733 196.09100499 C84.38681398 192.86822023 81.07512329 189.8712584 77.62209983 186.93084874 C73.96279825 183.65173433 70.56301468 180.10750655 67.12991233 176.59491124 C66.26752952 175.75315343 65.40514671 174.91139562 64.51663108 174.04412999 C63.84634376 173.34277928 63.17605644 172.64142857 62.48545738 171.91882481 C58.17160428 169.19479947 54.40905778 169.47184426 49.40212913 169.49823155 C48.38702766 169.48789388 47.37192619 169.4775562 46.32606407 169.46690526 C42.97666461 169.43744883 39.62786871 169.43597744 36.27834983 169.43475499 C33.95377856 169.41977533 31.62921793 169.40304863 29.30467124 169.38464513 C23.19072893 169.3409358 17.07693019 169.3209644 10.96285911 169.30590978 C4.72223307 169.28635177 -1.51823763 169.24438022 -7.75875954 169.20428624 C-20.00027442 169.12894498 -32.24167689 169.08074868 -44.48336892 169.04412999 C-44.48336892 158.15412999 -44.48336892 147.26412999 -44.48336892 136.04412999 C-40.26966531 136.02954747 -36.05596169 136.01496495 -31.71457009 135.99994054 C-17.77662366 135.94955415 -3.83878782 135.88310062 10.09904857 135.80841508 C18.54771895 135.7635338 26.99634789 135.72410163 35.44509788 135.69769444 C42.81281449 135.67465206 50.18039914 135.64118486 57.54801096 135.59542843 C61.44568536 135.57157996 65.34322975 135.55279653 69.24097534 135.54651608 C72.91741651 135.54042701 76.5935254 135.52029123 80.26984306 135.48985448 C82.24651106 135.47700977 84.22325694 135.47863368 86.19996543 135.48085179 C100.81614398 135.32832812 114.92747186 131.19468714 125.77834983 120.95037999 C136.25561098 109.46070934 141.11915674 95.81893059 140.82913108 80.41131749 C139.72685915 68.53433742 134.33277464 57.92548249 126.51663108 49.04412999 C124.43311611 47.4045535 122.39417963 45.89442402 120.20413108 44.41912999 C119.66079124 44.03756749 119.11745139 43.65600499 118.55764671 43.26287999 C109.66786946 37.17542922 100.50045887 34.72539128 89.90006919 34.79689183 C89.0668635 34.79447529 88.2336578 34.79205875 87.37520345 34.78956898 C84.59291926 34.78394926 81.8108677 34.79257995 79.02859397 34.80121007 C77.01563134 34.80016702 75.002669 34.79825954 72.9897079 34.7955605 C67.48302132 34.79077332 61.97641443 34.79855443 56.46973749 34.80856218 C50.57601648 34.81719682 44.68229894 34.81450732 38.78857322 34.81340184 C26.03131452 34.81326388 13.27410049 34.82822127 0.51685615 34.84608617 C-7.3984901 34.85703015 -15.31383708 34.86433836 -23.22918801 34.87091222 C-53.92201101 34.89713511 -84.61474085 34.94375241 -115.30750965 35.00621464 C-117.24180669 35.01014845 -117.24180669 35.01014845 -119.21518044 35.01416173 C-120.49559946 35.01676885 -121.77601848 35.01937596 -123.09523807 35.02206209 C-131.67859154 35.03926448 -140.26194592 35.05374764 -148.84530739 35.06628575 C-172.32275198 35.10076341 -195.80005918 35.14461202 -219.2773724 35.23285165 C-221.21738594 35.24013212 -223.15739951 35.24740521 -225.09741311 35.25467076 C-226.0479549 35.25824328 -226.9984967 35.2618158 -227.97784279 35.26549657 C-234.62468993 35.28957256 -241.27151557 35.30397678 -247.91839699 35.31430211 C-255.94748114 35.32697643 -263.97637004 35.35354586 -272.00534134 35.39844211 C-276.03848966 35.42069017 -280.07140366 35.43709849 -284.10461907 35.43606534 C-311.28975181 35.43657728 -333.73204145 37.95461408 -354.14352517 57.64569249 C-372.45584271 77.47182829 -376.07840328 102.5139653 -375.39743142 128.29803624 C-374.79167146 140.05266393 -371.88518743 151.56158007 -366.48336892 162.04412999 C-366.05282204 162.91424718 -365.62227517 163.78436437 -365.17868142 164.68084874 C-356.37386966 181.74314612 -342.8922473 194.04116856 -324.5912333 200.12841954 C-317.53691998 202.25220937 -311.03552608 202.62059097 -303.70675759 202.59002843 C-302.39788079 202.6003661 -301.08900399 202.61070378 -299.74046426 202.62135472 C-296.19580609 202.64891456 -292.651499 202.65262616 -289.10674934 202.65163483 C-285.38580156 202.65479014 -281.66500597 202.68046203 -277.94413857 202.70361485 C-270.91804547 202.74397985 -263.89204472 202.76446933 -256.86585365 202.77758875 C-247.35733028 202.79651276 -237.8489724 202.84660508 -228.34056096 202.89483228 C-213.38817232 202.96985999 -198.43598346 203.0036464 -183.48336892 203.04412999 C-183.48336892 180.93412999 -183.48336892 158.82412999 -183.48336892 136.04412999 C-230.67336892 136.04412999 -277.86336892 136.04412999 -326.48336892 136.04412999 C-326.48336892 125.15412999 -326.48336892 114.26412999 -326.48336892 103.04412999 C-310.78817874 102.91152041 -295.09297632 102.78074401 -279.39774613 102.65297856 C-272.10368625 102.59354873 -264.80963367 102.53341585 -257.51559548 102.47137608 C-251.12873576 102.41705442 -244.74186494 102.36430726 -238.35497896 102.31316295 C-234.99989344 102.28624898 -231.64482091 102.25850828 -228.28975396 102.22932591 C-202.01961178 102.00176283 -175.75649212 102.04412999 -149.48336892 102.04412999 C-149.48336892 146.59412999 -149.48336892 191.14412999 -149.48336892 237.04412999 C-190.45812037 237.08443302 -190.45812037 237.08443302 -207.64743142 237.09295812 C-219.50941499 237.09888839 -231.37139145 237.10585461 -243.23336892 237.11956944 C-251.87292812 237.12955373 -260.51248155 237.13599233 -269.15204637 237.13821848 C-273.72428522 237.13951923 -278.29650754 237.14256476 -282.86874108 237.14986005 C-287.17785148 237.15667938 -291.48693865 237.15873497 -295.79605393 237.15723767 C-297.37216097 237.15751135 -298.94826884 237.15948123 -300.52437119 237.16333546 C-317.2597298 237.20223125 -332.30120388 235.71189011 -347.48336892 228.04412999 C-348.45532204 227.57491124 -349.42727517 227.10569249 -350.42868142 226.62225499 C-377.23751425 213.05633958 -394.72337503 189.75591637 -404.22628884 161.59735265 C-415.07102958 127.44339811 -411.76843717 88.76860241 -395.46774392 57.02850499 C-382.35991202 32.63471697 -360.3657234 14.68471699 -334.24899392 5.84881749 C-320.54916265 1.86270839 -306.9257842 0.89969145 -292.72235207 0.88591161 C-291.61223799 0.88097363 -290.5021239 0.87603565 -289.35836999 0.87094804 C-285.67331239 0.85571209 -281.98827207 0.84724763 -278.30319314 0.83880772 C-275.64060834 0.82921197 -272.97802736 0.81923928 -270.31544594 0.80880895 C-263.82896844 0.78426805 -257.34248522 0.76480904 -250.85598597 0.7470562 C-243.18398569 0.72585243 -235.51200568 0.69944292 -227.84002239 0.67288473 C-214.00858383 0.62517441 -200.17713481 0.58201008 -186.34567361 0.54144444 C-173.2034095 0.50289507 -160.06115934 0.46146864 -146.91891579 0.41644444 C-145.31186959 0.41094953 -143.70482338 0.40545521 -142.09777717 0.39996149 C-140.90621773 0.39588679 -140.90621773 0.39588679 -139.69058639 0.39172977 C-138.50021431 0.38765922 -138.50021431 0.38765922 -137.2857943 0.38350644 C-136.09685926 0.37943934 -136.09685926 0.37943934 -134.88390532 0.37529008 C-100.32289362 0.25721713 -65.76186118 0.1607851 -31.2007391 0.08159856 C-20.80048178 0.05773769 -10.40024052 0.0302818 0 0 Z " fill="#FDFDFD" transform="translate(426.4833689182997,874.9558700099587)"/>
<path d="M0 0 C1.21261505 -0.00860046 2.4252301 -0.01720093 3.67459106 -0.02606201 C5.02055316 -0.03049713 6.36651571 -0.0347955 7.71247864 -0.03897095 C9.1284963 -0.04687377 10.54451196 -0.05514284 11.96052551 -0.06375122 C16.61325665 -0.08995356 21.26599669 -0.10527848 25.91877747 -0.11953735 C27.52179279 -0.12489804 29.12480805 -0.13027555 30.72782326 -0.13566971 C37.39759511 -0.15729707 44.06736455 -0.17603246 50.73716259 -0.1872921 C60.28812261 -0.20352276 69.83867526 -0.23668038 79.38948172 -0.29369295 C86.10893225 -0.33243276 92.82827401 -0.35192963 99.54783326 -0.35721266 C103.55899253 -0.36086103 107.56971713 -0.37282656 111.58075523 -0.4053154 C115.35740993 -0.43546716 119.13336861 -0.44168309 122.9101181 -0.42993164 C124.29197349 -0.42971148 125.67386183 -0.43796864 127.05560493 -0.45558548 C135.0290446 -0.5516647 141.03643758 -0.28778753 147.18830872 5.15390015 C151.30869499 9.5401178 151.31297757 13.82742147 151.30183411 19.66659546 C151.30198013 20.31091522 151.30212616 20.95523499 151.30227661 21.61907959 C151.30158222 23.74009617 151.29381208 25.86102398 151.28596497 27.98202515 C151.2840991 29.45604403 151.28267599 30.93006353 151.28167725 32.40408325 C151.27786532 36.27729006 151.26804637 40.15045917 151.25697327 44.02365112 C151.24673064 47.97852061 151.24217352 51.93339621 151.23713684 55.88827515 C151.22642289 63.64350064 151.2093624 71.3986951 151.18830872 79.15390015 C152.6462384 79.14057648 152.6462384 79.14057648 154.13362122 79.12698364 C163.31393714 79.04573502 172.49417966 78.98585682 181.67477417 78.94665146 C186.39411966 78.92581759 191.11317383 78.8975771 195.83235168 78.85214233 C200.39056748 78.80853419 204.94850386 78.78473147 209.50691223 78.77439117 C211.24198299 78.76702659 212.97703924 78.75264531 214.71199036 78.73097992 C217.15104163 78.70174603 219.5889529 78.69795233 222.02815247 78.69979858 C222.7380986 78.68541748 223.44804474 78.67103638 224.17950439 78.65621948 C230.28643568 78.70591484 235.66522039 80.66295307 240.02815247 84.9703064 C240.39037903 85.54651733 240.75260559 86.12272827 241.12580872 86.71640015 C241.50608215 87.29518921 241.88635559 87.87397827 242.27815247 88.4703064 C244.19340558 92.01311367 244.31749988 94.95462179 244.32875061 98.90312195 C244.33446075 100.10179901 244.3401709 101.30047607 244.34605408 102.53547668 C244.34717194 103.8524202 244.34828979 105.16936371 244.34944153 106.5262146 C244.35407037 107.92577241 244.35909512 109.32532896 244.36448669 110.72488403 C244.37760666 114.52870647 244.3840549 118.33251125 244.38849735 122.13635278 C244.39142882 124.51321351 244.39553378 126.89006942 244.40000153 129.26692772 C244.4136756 136.70465774 244.42334261 144.14237675 244.42720342 151.58011848 C244.43168364 160.16384466 244.44923018 168.74741156 244.47820401 177.33108932 C244.49982607 183.96728539 244.50990798 190.60343667 244.51124454 197.23966759 C244.51229222 201.20257356 244.51819215 205.16532977 244.53606415 209.12819862 C244.5525539 212.85712124 244.55469608 216.58578168 244.54592514 220.31472778 C244.54478876 222.33175055 244.55849927 224.34876466 244.57267761 226.36573792 C244.56432388 228.17644272 244.56432388 228.17644272 244.55580139 230.02372742 C244.55726795 231.06883138 244.55873451 232.11393534 244.56024551 233.19070911 C243.80085592 239.24070589 240.71728759 243.25687181 236.18830872 247.15390015 C231.97859999 249.60183387 228.91645244 250.53166948 224.06054688 250.55503845 C222.25022728 250.57423088 222.25022728 250.57423088 220.40333557 250.59381104 C219.09254028 250.59245148 217.781745 250.59109192 216.43122864 250.58969116 C215.02623698 250.59867528 213.6212527 250.60888503 212.21627808 250.620224 C208.4103255 250.6466633 204.60457542 250.6537549 200.79853988 250.65567136 C198.41743298 250.6578076 196.03637715 250.6642195 193.65528297 250.67216301 C185.33902864 250.69989736 177.02291831 250.71217106 168.70661926 250.70980835 C160.96974369 250.70800697 153.23349629 250.73964887 145.49677962 250.78703934 C138.84176612 250.82634284 132.18695729 250.84235682 125.5318287 250.84044212 C121.56256109 250.83967934 117.59385195 250.84811025 113.62470055 250.87997627 C109.888893 250.9091515 106.15417267 250.90917034 102.41832542 250.88742638 C100.40545218 250.88282425 98.39257805 250.9077398 96.37986755 250.93374634 C88.45846122 250.85172912 83.04203046 249.71925349 77.18830872 244.15390015 C73.26745365 239.33122155 73.06302225 235.80400974 73.07478333 229.64120483 C73.0746373 228.99688507 73.07449127 228.35256531 73.07434082 227.6887207 C73.07503521 225.56770412 73.08280535 223.44677631 73.09065247 221.32577515 C73.09251833 219.85175627 73.09394144 218.37773676 73.09494019 216.90371704 C73.09875211 213.03051023 73.10857106 209.15734112 73.11964417 205.28414917 C73.12988679 201.32927968 73.13444391 197.37440408 73.13948059 193.41952515 C73.15019454 185.66429966 73.16725503 177.90910519 73.18830872 170.15390015 C72.20382751 170.1650032 71.21934631 170.17610626 70.20503235 170.18754578 C60.90702435 170.28910031 51.60912953 170.36395093 42.31069183 170.41296101 C37.53072921 170.43900525 32.75121591 170.47430824 27.97151184 170.53109741 C23.35492566 170.58560248 18.73877043 170.61535956 14.12188721 170.62828636 C12.3644635 170.63749316 10.6070622 170.65547211 8.849823 170.68255043 C-8.47094684 170.93873319 -8.47094684 170.93873319 -13.25559902 166.7725935 C-19.82774361 159.93605365 -19.3792966 152.03958227 -19.31340027 143.12216187 C-19.31718869 141.71201032 -19.32269303 140.3018625 -19.32977295 138.89172363 C-19.34367434 135.08183875 -19.3325968 131.27240815 -19.31606174 127.46254873 C-19.30216021 123.46685061 -19.3086769 119.47117748 -19.31219482 115.47546387 C-19.3148923 108.76908081 -19.30145913 102.06287721 -19.27824402 95.35653687 C-19.25161542 87.61064383 -19.24989576 79.86505031 -19.26163238 72.11912715 C-19.27242119 64.65466738 -19.26621586 57.19031562 -19.2520771 49.72586441 C-19.24632903 46.55454063 -19.24639062 43.38329619 -19.2511425 40.21197128 C-19.25592427 36.47718683 -19.24576134 32.74272935 -19.22418785 29.00800705 C-19.21599489 26.98868114 -19.22245872 24.96931234 -19.22938538 22.94998169 C-19.21948074 21.7416568 -19.20957611 20.53333191 -19.19937134 19.28839111 C-19.19694144 18.2424069 -19.19451155 17.19642269 -19.19200802 16.11874199 C-18.53032355 10.96043675 -16.31967172 7.10227896 -12.31169128 3.84140015 C-11.72387878 3.35026733 -11.13606628 2.85913452 -10.53044128 2.3531189 C-7.12044762 -0.02612668 -4.02290948 0.02122559 0 0 Z " fill="#FDFDFD" transform="translate(1057.8116912841797,299.8460998535156)"/>
<path d="M0 0 C24.90005887 -0.11388078 49.80005983 -0.20353829 74.70034599 -0.24805355 C76.78066129 -0.25179936 78.86097657 -0.25556094 80.94129181 -0.25933838 C82.4814996 -0.26212845 82.4814996 -0.26212845 84.05282271 -0.26497489 C91.28733426 -0.2790924 98.52176672 -0.3035596 105.75623322 -0.33239746 C114.66423237 -0.36771512 123.57212628 -0.38843702 132.48019725 -0.39116323 C137.06969183 -0.39293023 141.65893638 -0.40100732 146.2483654 -0.42656708 C150.49680811 -0.44998397 154.74485135 -0.45407338 158.9933424 -0.44392478 C160.52415741 -0.44345921 162.05499418 -0.44958821 163.58574581 -0.46352589 C190.52108448 -0.69499547 216.18708974 8.8445876 236.17761993 27.02676392 C236.85824493 27.62617798 237.53886993 28.22559204 238.24011993 28.84317017 C260.25814971 49.3962907 272.42446518 80.4729927 273.52527618 110.17910767 C274.24696786 146.37218099 264.59355301 179.19737795 239.65564728 206.05117798 C222.30523496 224.0516362 195.90976306 235.79409691 170.88155365 236.26727295 C168.55552182 236.27299621 166.22944609 236.26792404 163.90345001 236.2538147 C161.98446396 236.25425278 161.98446396 236.25425278 160.02671051 236.25469971 C156.55427431 236.2552683 153.08197922 236.24359499 149.60957551 236.22955179 C145.96744411 236.21696115 142.32530868 236.21586742 138.68315887 236.21350098 C131.80217192 236.2073105 124.9212493 236.19093299 118.04029053 236.170802 C110.19980676 236.1483668 102.35931975 236.13743049 94.51881182 236.12741113 C78.4050377 236.1065643 62.2913521 236.06991888 46.17761993 236.02676392 C46.17761993 225.13676392 46.17761993 214.24676392 46.17761993 203.02676392 C49.70803986 203.0121814 53.23845978 202.99759888 56.87586212 202.98257446 C68.61050715 202.93197675 80.3450335 202.86548401 92.07954788 202.791049 C99.18611657 202.74635036 106.29263803 202.70687845 113.39929962 202.68032837 C119.60358973 202.65713555 125.80772705 202.62350756 132.01189542 202.57806236 C135.28779809 202.55441207 138.56352447 202.53706037 141.83950806 202.52915001 C170.81805294 202.4521758 196.28558182 200.91880203 217.70105743 179.50332642 C235.87543478 158.84780541 239.2538911 132.4930228 238.17761993 106.02676392 C236.54750183 83.45766399 226.24804326 65.10281104 209.96668243 49.97207642 C194.76979881 37.2609284 177.22696495 34.57319469 158.05066681 34.59439087 C156.61974511 34.58534063 155.18883106 34.57500564 153.75792694 34.56350708 C149.93046268 34.53629293 146.10314685 34.52670193 142.27559853 34.52065301 C138.25439622 34.51117503 134.23330084 34.48496531 130.21216583 34.46064758 C122.62307846 34.41723506 115.03401213 34.38853399 107.444839 34.3653242 C98.79402596 34.3381359 90.14332185 34.29423372 81.49258709 34.24903548 C63.72098917 34.15655151 45.9493624 34.08470622 28.17761993 34.02676392 C28.20740149 34.93851977 28.23718306 35.85027563 28.26786709 36.78966045 C29.02716556 60.63179448 29.31853249 84.44523446 29.27901387 108.29856896 C29.27260097 112.85210518 29.27216281 117.4056427 29.27098846 121.95918274 C29.26792643 130.51445461 29.25978512 139.06971312 29.24963897 147.6249792 C29.23831481 157.39348506 29.23292707 167.1619917 29.22794354 176.93050253 C29.21759581 196.96259869 29.19931738 216.99467662 29.17761993 237.02676392 C17.29761993 237.02676392 5.41761993 237.02676392 -6.82238007 237.02676392 C-6.82238007 214.91676392 -6.82238007 192.80676392 -6.82238007 170.02676392 C-68.86238007 170.02676392 -130.90238007 170.02676392 -194.82238007 170.02676392 C-194.82238007 158.80676392 -194.82238007 147.58676392 -194.82238007 136.02676392 C-132.78238007 136.02676392 -70.74238007 136.02676392 -6.82238007 136.02676392 C-7.15238007 102.69676392 -7.48238007 69.36676392 -7.82238007 35.02676392 C-30.89280678 35.0883879 -30.89280678 35.0883879 -53.96300507 35.18692017 C-63.38162212 35.23532835 -72.80013345 35.27982336 -82.21886444 35.29776001 C-89.08089414 35.31084663 -95.94270673 35.33798762 -102.80461407 35.38137698 C-106.43141866 35.40383592 -110.05795705 35.4196841 -113.68483734 35.41864777 C-139.71274868 35.29939936 -139.71274868 35.29939936 -164.07238007 43.71426392 C-164.72657928 44.05457642 -165.3807785 44.39488892 -166.05480194 44.74551392 C-182.55368617 53.59857375 -194.37772792 66.17659293 -203.00988007 82.65176392 C-203.33085663 83.24151001 -203.65183319 83.8312561 -203.98253632 84.43887329 C-212.01440863 100.38645448 -211.43493199 117.51277279 -211.42988491 134.89984894 C-211.43305104 138.50066435 -211.45874458 142.10132429 -211.48186493 145.70205688 C-211.52214906 152.49430471 -211.54270002 159.28645722 -211.55583882 166.07880592 C-211.57180336 173.82276601 -211.61025771 181.56656602 -211.65043211 189.31043243 C-211.73245277 205.21585294 -211.78381299 221.12116965 -211.82238007 237.02676392 C-222.71238007 237.02676392 -233.60238007 237.02676392 -244.82238007 237.02676392 C-244.89030892 219.68400433 -244.94548453 202.34135971 -244.97781658 184.99850368 C-244.99323323 176.94447985 -245.01422221 168.89054504 -245.04869843 160.83657837 C-245.07876121 153.81023168 -245.09799279 146.78394951 -245.10464555 139.75754029 C-245.10852948 136.04300029 -245.11754622 132.32864476 -245.13957024 128.61416435 C-245.16405571 124.45010346 -245.16433935 120.28635571 -245.16295624 116.1222229 C-245.17374207 114.91380234 -245.18452789 113.70538177 -245.19564056 112.46034241 C-245.08914137 82.59375604 -230.78926692 55.60756141 -210.35192108 34.52871704 C-188.41073233 12.98327519 -159.32165444 1.01213125 -128.62511444 0.82144165 C-127.61843562 0.81155622 -126.6117568 0.80167078 -125.57457256 0.79148579 C-122.18844891 0.75968313 -118.80231376 0.73488172 -115.41613007 0.71035767 C-112.94858343 0.68938129 -110.48103891 0.66815383 -108.0134964 0.646698 C-100.4998052 0.58361133 -92.98607095 0.52998456 -85.47229052 0.47894621 C-83.32767212 0.46430006 -81.18305621 0.44933153 -79.0384407 0.43426895 C-55.574234 0.26993268 -32.10988505 0.1454336 -8.64534664 0.03953934 C-5.76356378 0.02649774 -2.88178188 0.01325726 0 0 Z " fill="#FCFCFC" transform="translate(1436.822380065918,877.9732360839844)"/>
<path d="M0 0 C6.12771781 0.00436865 12.25543475 0.00285358 18.38315368 0.00209773 C28.96801282 0.00157651 39.55286645 0.00464549 50.13772368 0.01033556 C61.22310708 0.01627926 72.30848799 0.02010685 83.39387298 0.02118838 C84.086508 0.02125712 84.77914303 0.02132586 85.492767 0.02139668 C89.01117865 0.02173507 92.52959031 0.02203644 96.04800197 0.02232356 C120.8842438 0.02441667 145.72048239 0.03113351 170.5567224 0.04062617 C194.66512067 0.04982992 218.77351804 0.05690403 242.88191772 0.06113398 C243.62675699 0.06126551 244.37159627 0.06139703 245.13900644 0.06153254 C252.61988044 0.06285121 260.10075445 0.06412701 267.58162847 0.0653714 C282.81720263 0.06790673 298.05277674 0.07072798 313.28835082 0.07372248 C313.98865665 0.07385977 314.68896248 0.07399706 315.4104897 0.07413851 C362.07170277 0.08331885 408.73291388 0.09923915 455.39412475 0.11606562 C455.39412475 11.99606562 455.39412475 23.87606562 455.39412475 36.11606562 C448.20405639 36.13008418 448.20405639 36.13008418 440.86873412 36.14438593 C424.99499167 36.17821999 409.12137774 36.23360597 393.24773955 36.29996836 C383.62774947 36.33966435 374.00784008 36.37210457 364.38777709 36.38706172 C355.99637399 36.4001274 347.60514912 36.42721647 339.21384645 36.47067869 C334.77662844 36.49318362 330.33962937 36.50898295 325.90234923 36.50794947 C321.71285722 36.50719631 317.52384714 36.52540628 313.33448005 36.55723345 C311.80929368 36.56564679 310.2840527 36.56754181 308.75885367 36.56186831 C288.89707472 36.4979137 270.55146417 41.66659543 255.39412475 55.11606562 C254.5104724 55.86049922 254.5104724 55.86049922 253.6089685 56.61997187 C239.50263735 69.44098811 231.54156 90.2013687 230.10848022 108.82895625 C229.99440009 112.59606972 229.98415878 116.34751201 230.01912475 120.11606562 C230.0017224 121.99165156 230.0017224 121.99165156 229.9839685 123.90512812 C230.05278312 146.06343629 237.78080421 168.45977713 253.4995935 184.38950312 C269.60309725 199.55852556 286.62809353 203.57292057 308.12996459 203.54843867 C309.75763216 203.55747883 311.38529297 203.56781148 313.01294494 203.57932246 C317.38596191 203.60665422 321.75884889 203.61614418 326.13194013 203.62217653 C330.71903031 203.63162292 335.30602573 203.65783086 339.89305663 203.68218195 C348.55885858 203.72567955 357.22464196 203.75432894 365.8905195 203.77750534 C375.76495562 203.80464728 385.63929562 203.84855287 395.51366282 203.89379406 C415.80711176 203.98640035 436.10055166 204.05597832 456.39412475 204.11606562 C456.39412475 215.33606562 456.39412475 226.55606562 456.39412475 238.11606562 C434.86959347 238.22937465 413.34530745 238.3212936 391.82055259 238.37512648 C381.82397114 238.4007976 371.82758954 238.43573321 361.83113647 238.49326289 C353.10795883 238.54344048 344.38492607 238.57543699 335.6616081 238.5865081 C331.05192301 238.59296934 326.44265203 238.60791695 321.83310103 238.64471591 C283.50718984 238.93844245 254.73171327 233.65653492 226.39412475 206.11606562 C225.67353881 205.42126093 224.95295287 204.72645625 224.210531 204.01059687 C200.99223967 179.85796787 194.68211658 145.14331026 195.14412475 113.02622187 C195.62432996 95.47232021 199.52643847 78.88004794 207.39412475 63.11606562 C207.80017943 62.29235468 208.20623412 61.46864375 208.6245935 60.61997187 C213.31917428 51.55956246 219.15593287 42.3542575 226.39412475 35.11606562 C138.61412475 34.78606562 50.83412475 34.45606562 -39.60587525 34.11606562 C-39.60587525 89.88606562 -39.60587525 145.65606562 -39.60587525 203.11606562 C-37.29587525 202.78606562 -34.98587525 202.45606562 -32.60587525 202.11606562 C-31.25834935 202.03920452 -29.90831275 201.9921872 -28.55859685 201.99301779 C-27.83404681 201.99102674 -27.10949678 201.9890357 -26.36299068 201.98698431 C-25.20294533 201.99135357 -25.20294533 201.99135357 -24.01946473 201.9958111 C-23.18043908 201.99495668 -22.34141342 201.99410226 -21.47696275 201.99322194 C-18.6794981 201.99158134 -15.88209409 201.99706518 -13.08463502 202.00254023 C-11.07377586 202.00282243 -9.0629166 202.00266372 -7.0520575 202.00209773 C-1.60222356 202.00181105 3.84758834 202.00768687 9.29741716 202.01467168 C14.99624226 202.02092676 20.69506787 202.02151073 26.39389586 202.02269709 C37.18137125 202.02580405 47.9688365 202.03400888 58.75630742 202.04404658 C71.03918512 202.05522744 83.3220633 202.06072314 95.60494483 202.06574202 C120.86801061 202.07619201 146.13106668 202.09398082 171.39412475 202.11606562 C171.39412475 213.33606562 171.39412475 224.55606562 171.39412475 236.11606562 C90.87412475 236.11606562 10.35412475 236.11606562 -72.60587525 236.11606562 C-73.75555606 186.67979097 -73.75555606 186.67979097 -73.71940064 170.60947382 C-73.71911609 168.71152971 -73.71928166 166.81358548 -73.71984315 164.91564143 C-73.72012073 159.93899719 -73.71439974 154.96237893 -73.70726919 149.98574054 C-73.70085535 144.71954728 -73.70041806 139.45335289 -73.69924378 134.18715632 C-73.69618201 124.29336157 -73.68804108 114.39957837 -73.67789429 104.50578862 C-73.66656929 93.20875647 -73.66118219 81.91172365 -73.65619886 70.6146872 C-73.64585172 47.4484737 -73.62835647 24.28227032 -73.60587525 1.11606562 C-49.07764829 -0.11710309 -24.55225584 -0.02200674 0 0 Z " fill="#FCFCFC" transform="translate(705.6058752536774,876.883934378624)"/>
<path d="M0 0 C0.9850502 -0.00671722 1.9701004 -0.01343445 2.98500061 -0.02035522 C6.21759184 -0.03923764 9.44997435 -0.04325455 12.68261719 -0.04541016 C14.94789716 -0.05184504 17.21317632 -0.05857391 19.47845459 -0.06558228 C24.21921717 -0.07753082 28.95990702 -0.08126561 33.70068359 -0.08007812 C39.74714874 -0.07987512 45.79314291 -0.10716921 51.83949661 -0.14162254 C56.51694847 -0.16396389 61.19428829 -0.16791344 65.87178802 -0.16685867 C68.09951143 -0.16920405 70.32723843 -0.17796693 72.55490875 -0.19352341 C84.27228485 -0.26768822 94.77105114 -0.33098972 105.72949219 4.29052734 C106.41848099 4.56024353 107.10746979 4.82995972 107.81733704 5.10784912 C127.09691895 13.07429564 139.75622713 28.45832196 147.90429688 47.18652344 C157.63683163 72.00160763 156.21265668 102.04293168 145.72949219 126.29052734 C136.51532426 145.24790633 122.48327669 157.7189998 103.01074219 165.35693359 C100.9241489 166.07680828 98.86603287 166.73833989 96.72949219 167.29052734 C95.73724892 167.5482618 95.73724892 167.5482618 94.72496033 167.811203 C90.42711064 168.49892989 86.1834026 168.45499679 81.8371582 168.4675293 C80.84454483 168.47410049 79.85193146 168.48067169 78.82923889 168.48744202 C75.54729122 168.50713421 72.26538934 168.51883153 68.98339844 168.52880859 C67.85807142 168.53288412 66.73274441 168.53695965 65.57331657 168.54115868 C59.61146098 168.56200679 53.64962828 168.57631131 47.68774414 168.58569336 C41.5583375 168.59672639 35.42929701 168.63109435 29.30001926 168.67086506 C24.563343 168.6971368 19.82675238 168.70539479 15.09000969 168.70897484 C12.83240233 168.71381725 10.57479818 168.72536343 8.31726265 168.74401283 C-12.88636307 168.90822132 -30.76291067 165.78121882 -47.27050781 151.29052734 C-47.93566406 150.71947266 -48.60082031 150.14841797 -49.28613281 149.56005859 C-63.97296849 136.00075557 -72.44333703 115.10781299 -73.41577148 95.3371582 C-73.44059857 91.96734816 -73.45616533 88.59793552 -73.45800781 85.22802734 C-73.47025391 84.07625 -73.4825 82.92447266 -73.49511719 81.73779297 C-73.53607884 57.39291925 -65.90780158 36.45907172 -48.87451172 18.80859375 C-35.61709565 6.26146847 -18.05309546 -0.01797431 0 0 Z " fill="#000000" transform="translate(1835.2705078125,913.70947265625)"/>
<path d="M0 0 C1.19578674 -0.0071553 2.39157349 -0.01431061 3.62359619 -0.02168274 C4.93739761 -0.02437164 6.25119904 -0.02706055 7.60481262 -0.02983093 C9.00112578 -0.03609687 10.39743728 -0.04274379 11.79374695 -0.04974365 C16.38155458 -0.07077413 20.9693625 -0.0811463 25.5572052 -0.09111023 C27.13793264 -0.09515841 28.7186599 -0.09927535 30.29938698 -0.10346031 C37.72750724 -0.12251116 45.15561758 -0.13674141 52.58375758 -0.14507228 C61.15053096 -0.15483935 69.71704559 -0.18114529 78.28372782 -0.22157317 C84.90976305 -0.25176651 91.53572424 -0.26654427 98.16182691 -0.26985329 C102.11702635 -0.27220047 106.07194934 -0.28111704 110.02707481 -0.30631447 C113.75113377 -0.32965626 117.47473547 -0.33380423 121.19884872 -0.32355309 C123.20835037 -0.32282446 125.21782911 -0.34187348 127.22723389 -0.36161804 C135.07681749 -0.31656745 141.25425184 0.18826902 147.1040802 5.96357727 C147.46630676 6.53978821 147.82853333 7.11599915 148.20173645 7.70967102 C148.77214661 8.57785461 148.77214661 8.57785461 149.3540802 9.46357727 C150.9467214 12.40962173 151.38878217 14.86969686 151.38449097 18.15246582 C151.38655296 19.37028999 151.38655296 19.37028999 151.38865662 20.61271667 C151.38506134 21.49960175 151.38146606 22.38648682 151.37776184 23.30024719 C151.37790787 24.23702805 151.37805389 25.1738089 151.37820435 26.13897705 C151.37750695 29.23938807 151.36972263 32.33973923 151.3618927 35.44013977 C151.36002791 37.58819547 151.35860429 39.73625159 151.35760498 41.88430786 C151.35378465 47.54125643 151.34395846 53.19817937 151.332901 58.8551178 C151.3226765 64.62629347 151.31810513 70.39747328 151.31306458 76.1686554 C151.30233579 87.49483854 151.28526514 98.82100265 151.26423645 110.14717102 C142.46348697 109.10542341 142.46348697 109.10542341 138.6353302 107.58076477 C137.83586975 107.26462219 137.0364093 106.94847961 136.21272278 106.62275696 C135.38409729 106.2801886 134.5554718 105.93762024 133.70173645 105.58467102 C132.82477112 105.22534485 131.94780579 104.86601868 131.04426575 104.49580383 C116.4967089 98.42271931 103.87547164 90.58345805 91.26423645 81.14717102 C90.28841614 80.41885071 89.31259583 79.6905304 88.3072052 78.94013977 C77.48076902 70.45104513 67.57453719 60.31174685 58.81599426 49.71577454 C56.27115152 47.14330527 53.94063547 47.1158548 50.38923645 46.77217102 C47.02347596 46.83426992 46.23330868 47.16778953 43.26423645 49.14717102 C41.19555278 52.25019653 40.70547239 54.26526995 40.6978302 57.98701477 C46.58760254 80.44938792 81.46600234 101.59888355 100.45124817 112.88667297 C116.46278555 122.14558996 133.43120549 128.42303975 151.26423645 133.14717102 C151.3814282 136.98024271 151.45181722 140.8128471 151.51423645 144.64717102 C151.54775208 145.72482727 151.5812677 146.80248352 151.61579895 147.91279602 C151.70038306 154.84869327 151.001676 159.25745823 147.26423645 165.14717102 C142.46458883 169.82375076 137.903639 171.39480883 131.27450562 171.40786743 C129.47236603 171.41849464 129.47236603 171.41849464 127.63381958 171.42933655 C126.32406662 171.42685913 125.01431366 171.42438171 123.66487122 171.42182922 C122.26501697 171.42617868 120.86516511 171.43136261 119.46531677 171.43731689 C115.6698496 171.4506928 111.87448209 171.45128716 108.07899594 171.4487536 C104.90802363 171.44768297 101.7370714 171.45256958 98.5661034 171.45735902 C91.08419948 171.46844924 83.60234578 171.46889428 76.12043762 171.46284485 C68.40700395 171.45680404 60.69375264 171.46911983 52.98035008 171.49041492 C46.35259768 171.50803859 39.72490329 171.51403109 33.09712833 171.51077718 C29.14097092 171.50896546 25.18494361 171.51158936 21.22880745 171.52549171 C17.50804953 171.53807804 13.78757567 171.53611854 10.06682205 171.52308083 C8.05460112 171.51959228 6.04237147 171.53088697 4.03018188 171.54264832 C2.82593567 171.535634 1.62168945 171.52861969 0.38095093 171.52139282 C-0.6615554 171.52156056 -1.70406172 171.52172831 -2.77815914 171.52190113 C-8.82419834 170.75586463 -12.84034783 167.67427577 -16.73576355 163.14717102 C-19.17874224 158.94522104 -20.11210347 155.89775538 -20.1234436 151.05064392 C-20.13334824 149.85073318 -20.14325287 148.65082245 -20.15345764 147.41455078 C-20.14670517 145.46002739 -20.14670517 145.46002739 -20.13981628 143.46601868 C-20.14552337 142.06925918 -20.15248895 140.67250436 -20.16061401 139.27575684 C-20.17852504 135.49257027 -20.17738077 131.70961591 -20.17167163 127.92639971 C-20.16857624 124.76301295 -20.17467625 121.59967058 -20.18071038 118.43629014 C-20.19474775 110.97008773 -20.1932014 103.50399975 -20.18180847 96.03779602 C-20.17033271 88.34761031 -20.18439541 80.65777357 -20.21120495 72.96763384 C-20.23339336 66.35425417 -20.23999213 59.74098379 -20.23412853 53.12756956 C-20.23076467 49.18250698 -20.23313562 45.23766798 -20.25037956 41.29263687 C-20.26589654 37.58080581 -20.2618412 33.86948967 -20.24307442 30.1576786 C-20.23765727 28.15539362 -20.25186714 26.15308525 -20.26676941 24.15084839 C-20.20290434 16.32173646 -19.67885476 10.14114083 -13.9193573 4.30732727 C-13.34314636 3.94510071 -12.76693542 3.58287415 -12.17326355 3.20967102 C-11.30507996 2.63926086 -11.30507996 2.63926086 -10.4193573 2.05732727 C-6.88280266 0.14545434 -3.94165202 0.01617532 0 0 Z " fill="#FDFDFD" transform="translate(753.7357635498047,193.8528289794922)"/>
<path d="M0 0 C0.85325363 -0.00571014 1.70650726 -0.01142029 2.58561707 -0.01730347 C3.9934848 -0.01898026 3.9934848 -0.01898026 5.42979431 -0.02069092 C6.91082893 -0.02813828 6.91082893 -0.02813828 8.42178345 -0.03573608 C11.70562938 -0.05039852 14.9894268 -0.05717119 18.27330017 -0.06268311 C20.56142172 -0.06843708 22.84954326 -0.07419478 25.13766479 -0.07995605 C29.95053838 -0.09048161 34.76339521 -0.09631216 39.57627869 -0.09979248 C45.70204682 -0.10524003 51.82758848 -0.12918055 57.95328617 -0.15776443 C62.69009001 -0.1765346 67.42684127 -0.1816043 72.16367912 -0.18312836 C74.41879433 -0.18612985 76.67390917 -0.19407223 78.9289875 -0.20731354 C112.42188485 -0.38971961 138.55412505 7.39859683 163.05064392 30.95294189 C186.78718055 55.40194961 196.46654867 87.63737354 196.34996033 121.11334229 C196.03486938 137.40396737 193.37388891 153.12304375 186.92564392 168.14044189 C186.63673279 168.81945557 186.34782166 169.49846924 186.05015564 170.19805908 C180.06442885 184.0953822 172.3044491 195.09510794 161.92564392 206.14044189 C161.39841736 206.74372314 160.8711908 207.34700439 160.32798767 207.96856689 C151.1126764 218.05591529 138.3329742 224.49594984 125.7855072 229.40948486 C123.97386878 230.12148873 122.18167313 230.88235212 120.39048767 231.64434814 C106.14921636 236.78428573 91.73798685 236.58523618 76.80064392 236.53887939 C74.48146982 236.54090537 72.16229634 236.54382114 69.84312439 236.5475769 C65.00533424 236.5519756 60.16771135 236.54564874 55.3299408 236.53155518 C49.16731954 236.51446504 43.00509044 236.52431945 36.84248352 236.54227257 C32.06029878 236.55317701 27.27820512 236.54963366 22.49601746 236.54188919 C20.22530571 236.53990555 17.95458535 236.54228092 15.68388367 236.54932785 C-16.71546019 236.6278409 -43.33422669 227.95119208 -67.15638733 205.10919189 C-76.04810937 196.25563175 -82.018898 186.27553779 -87.23548889 174.93438721 C-87.95357494 173.39873637 -88.72381556 171.8876594 -89.50404358 170.38262939 C-97.50615931 154.52750568 -99.25515787 136.7314014 -99.19935608 119.26544189 C-99.20322327 118.06274658 -99.20709045 116.86005127 -99.21107483 115.62091064 C-99.1989823 104.48368701 -98.46372527 94.19822457 -95.44935608 83.45294189 C-95.1835675 82.50032471 -94.91777893 81.54770752 -94.64393616 80.56622314 C-89.59754383 63.08811599 -81.74018341 47.59068301 -69.11732483 34.32403564 C-67.02564057 32.16876719 -67.02564057 32.16876719 -65.25013733 29.69903564 C-62.52355956 26.49273683 -59.48192158 24.20732157 -56.07435608 21.76544189 C-55.41153625 21.28647461 -54.74871643 20.80750732 -54.06581116 20.31402588 C-39.29379773 9.77879538 -24.23430916 2.86996124 -6.07435608 1.14044189 C-3.79522897 0.00087834 -2.53203806 0.01013711 0 0 Z M-46.38685608 58.95294189 C-60.48087807 76.84150826 -65.4991787 95.90702529 -65.38685608 118.45294189 C-65.38194153 119.63066162 -65.37702698 120.80838135 -65.3719635 122.02178955 C-65.04935127 146.09362495 -57.31811597 166.896682 -40.07435608 184.14044189 C-39.51232483 184.70247314 -38.95029358 185.26450439 -38.37123108 185.84356689 C-30.60023256 193.01099272 -21.25933998 197.62262291 -11.07435608 200.14044189 C-10.07853516 200.47726486 -9.08271423 200.81408783 -8.05671692 201.16111755 C-3.36386574 202.49839733 1.24343101 202.42801745 6.09263611 202.4151001 C7.09036041 202.42021103 8.08808472 202.42532196 9.11604309 202.43058777 C12.40159674 202.44444287 15.68693959 202.44352968 18.97251892 202.44122314 C21.26786883 202.44511303 23.56321802 202.4494483 25.85856628 202.45420837 C30.66675653 202.46166236 35.47487334 202.46138576 40.2830658 202.45611572 C46.42387313 202.45032998 52.56437798 202.46723471 58.70513535 202.4904604 C63.44598631 202.50524419 68.18676526 202.50606298 72.92763519 202.50295067 C75.19049426 202.5034618 77.45335758 202.50866016 79.71619415 202.51876259 C82.89134947 202.53119626 86.06592649 202.52429314 89.24107361 202.51275635 C90.16300507 202.52040009 91.08493652 202.52804382 92.0348053 202.53591919 C107.31724459 202.41411646 122.49557256 196.11870983 133.92564392 186.14044189 C134.50314392 185.71634033 135.08064392 185.29223877 135.67564392 184.85528564 C145.07482999 177.74062397 151.82504115 165.996827 155.92564392 155.14044189 C156.29302673 154.19813721 156.66040955 153.25583252 157.03892517 152.28497314 C165.48900747 129.02420115 164.7118771 99.27713522 154.25767517 76.72637939 C144.38844162 57.56675297 130.49255943 43.13192559 109.54591751 36.37251186 C103.05687224 34.46934586 97.20387269 33.70265703 90.45982361 33.73638916 C89.47769394 33.72952591 88.49556427 33.72266266 87.4836731 33.71559143 C84.27147007 33.69745146 81.05976164 33.70114367 77.84751892 33.70684814 C75.58988794 33.70227928 73.33225835 33.69697163 71.07463074 33.69096375 C66.35417515 33.68205698 61.63388895 33.68442695 56.91343689 33.69439697 C50.90082842 33.70586619 44.88880907 33.68569346 38.87627792 33.65647984 C34.21589008 33.63802123 29.5556408 33.63842977 24.89522552 33.64411736 C22.68032761 33.64426948 20.46541965 33.63831629 18.25055695 33.62582588 C-7.09816416 33.50302337 -29.02066342 38.8543982 -46.38685608 58.95294189 Z " fill="#FCFCFC" transform="translate(1827.0743560791016,879.8595581054688)"/>
<path d="M0 0 C1.2042009 -0.0071553 2.40840179 -0.01431061 3.64909363 -0.02168274 C4.9856107 -0.02452297 6.32212806 -0.0272347 7.65864563 -0.02983093 C9.06481087 -0.03609682 10.47097445 -0.04274374 11.87713623 -0.04974365 C16.49740956 -0.07077459 21.11768318 -0.08114632 25.73799133 -0.09111023 C27.32986277 -0.09515839 28.92173403 -0.09927533 30.51360512 -0.10346031 C37.99405113 -0.12251124 45.47448729 -0.13674149 52.9549529 -0.14507228 C61.582286 -0.15483948 70.20936218 -0.18114574 78.83660477 -0.22157317 C85.50934873 -0.25176565 92.18201917 -0.26654419 98.85483009 -0.26985329 C102.83797438 -0.27220056 106.82084417 -0.28111834 110.80391502 -0.30631447 C114.55423787 -0.32965476 118.30410666 -0.33380482 122.05448341 -0.32355309 C124.07829816 -0.32282439 126.10209015 -0.34187445 128.12580872 -0.36161804 C135.30584456 -0.32069474 140.15681097 0.19762762 146.22627258 4.14717102 C148.60127258 6.64717102 148.60127258 6.64717102 150.22627258 9.14717102 C150.58510529 9.67707642 150.94393799 10.20698181 151.31364441 10.75294495 C152.70992983 14.41601723 152.48655149 18.08908696 152.45332336 21.95478821 C152.45361542 22.84294724 152.45390747 23.73110626 152.45420837 24.6461792 C152.45281616 27.5789012 152.43725995 30.51136846 152.42158508 33.44404602 C152.41785457 35.47857016 152.41500778 37.5130961 152.41300964 39.54762268 C152.4053762 44.90045641 152.38573013 50.25318147 152.36360168 55.60597229 C152.34313707 61.068909 152.3340066 66.53186327 152.32392883 71.99482727 C152.30248402 82.71232291 152.2683515 93.42973793 152.22627258 104.14717102 C148.16593969 103.59688013 144.47030718 103.07254386 140.65986633 101.54560852 C139.85210754 101.22430969 139.04434875 100.90301086 138.21211243 100.57197571 C137.37116028 100.22554016 136.53020813 99.87910461 135.66377258 99.52217102 C134.77899231 99.16026672 133.89421204 98.79836243 132.98262024 98.42549133 C108.66254523 88.35135607 88.56400545 73.95779671 70.22627258 55.14717102 C69.36002258 54.28994446 68.49377258 53.4327179 67.60127258 52.54951477 C64.87185518 49.78867315 62.3790236 46.87995107 59.87471008 43.91670227 C57.07896349 40.91558093 55.47190757 40.17094215 51.35127258 39.77217102 C48.11868079 39.84956272 47.17886913 40.17641996 44.28877258 41.95967102 C41.75789825 44.64393168 41.3240001 46.61509898 40.66377258 50.20967102 C41.53668944 56.32008905 45.17498715 59.65892106 49.22627258 64.14717102 C50.16534703 65.21854693 51.1041381 66.29017128 52.04267883 67.36201477 C58.27246075 74.37629535 64.77973702 80.41816183 72.22627258 86.14717102 C73.89496949 87.47796259 75.56222292 88.81057299 77.22627258 90.14717102 C76.69850106 94.60205169 75.63333707 97.63883446 73.28486633 101.44795227 C72.40991516 102.91458313 72.40991516 102.91458313 71.51728821 104.4108429 C70.28574904 106.43658856 69.04620003 108.4574872 67.79853821 110.4733429 C64.08504347 116.73652395 62.2603908 120.83818498 63.22627258 128.14717102 C64.97627258 131.39717102 64.97627258 131.39717102 68.22627258 133.14717102 C71.38234316 133.83773981 74.11246031 134.05358898 77.22627258 133.14717102 C82.81875791 128.87654587 85.62008202 122.47725666 88.91377258 116.39717102 C90.0586161 114.2955382 91.20811395 112.19643185 92.36299133 110.10029602 C92.86532288 109.17378235 93.36765442 108.24726868 93.88520813 107.29267883 C95.22627258 105.14717102 95.22627258 105.14717102 97.22627258 104.14717102 C99.57778434 105.39660351 101.82803656 106.70436495 104.10127258 108.08467102 C119.21089572 116.88062403 135.27278292 122.15811463 152.22627258 126.14717102 C152.32596721 130.27299499 152.39812491 134.39834199 152.44599915 138.52510071 C152.46597888 139.92561575 152.49317278 141.32604884 152.5280304 142.72627258 C152.72269329 150.75325423 152.86123526 157.29874322 148.22627258 164.14717102 C144.81252726 167.69236548 141.65163832 170.02351185 136.59375286 170.2813921 C135.52765695 170.28566558 134.46156103 170.28993906 133.36315918 170.29434204 C132.13923965 170.30149734 130.91532013 170.30865265 129.65431213 170.31602478 C128.29573084 170.31886499 126.93714928 170.32157672 125.5785675 170.32417297 C124.14945307 170.33043865 122.72034027 170.33708555 121.29122925 170.34408569 C116.59641146 170.36511427 111.90159338 170.37548623 107.20674133 170.38545227 C105.59006038 170.38950013 103.97337959 170.39361706 102.35669899 170.39780235 C94.76199476 170.41685055 87.16730023 170.43108295 79.5725767 170.43941432 C70.80712435 170.44918894 62.04192438 170.47551572 53.27656096 170.51591522 C46.50023979 170.54607514 39.72399099 170.56088303 32.947604 170.56419533 C28.90080937 170.56654578 24.85428448 170.57550533 20.80756187 170.60065651 C16.99979283 170.62394062 13.19247107 170.62816937 9.38464928 170.61789513 C7.98906466 170.61739975 6.59345799 170.62372096 5.19794083 170.63745117 C-7.8661519 170.75876944 -7.8661519 170.75876944 -12.77372742 166.14717102 C-17.15399852 161.28020313 -19.0201654 157.81586437 -19.04115295 151.24645996 C-19.04968292 150.03943924 -19.05821289 148.83241852 -19.06700134 147.58882141 C-19.06630234 146.25434862 -19.06537929 144.91987594 -19.06425476 143.58540344 C-19.07024036 142.17746626 -19.07704599 140.76953237 -19.08460999 139.36160278 C-19.10227564 135.53915994 -19.10696564 131.71680664 -19.10824156 127.89432693 C-19.10966358 125.50488273 -19.11393418 123.11546127 -19.11923599 120.72602272 C-19.13773927 112.38616619 -19.14590637 104.04637357 -19.14433289 95.70649719 C-19.14313192 87.93909576 -19.16422458 80.17197241 -19.19582021 72.40464133 C-19.22199699 65.73103252 -19.23269957 59.05751443 -19.23142207 52.38385469 C-19.23091277 48.40021478 -19.23657749 44.41682192 -19.25777817 40.43323326 C-19.27718398 36.68452029 -19.27726944 32.93628939 -19.2627449 29.18755913 C-19.25966646 27.16238437 -19.2763175 25.13720946 -19.29362488 23.11210632 C-19.23908539 15.20987081 -18.63420365 10.35688349 -13.17607117 4.40498352 C-8.61677609 0.87912866 -5.68146574 0.02315103 0 0 Z " fill="#FDFDFD" transform="translate(1149.7737274169922,7.8528289794921875)"/>
<path d="M0 0 C1.20702072 -0.00708481 2.41404144 -0.01416962 3.65763855 -0.02146912 C4.99211158 -0.01917535 6.32658426 -0.01666566 7.66105652 -0.01396179 C9.06899282 -0.01830992 10.47692676 -0.02349341 11.88485718 -0.02944946 C15.70730912 -0.04284228 19.5296622 -0.04341766 23.35213304 -0.04088616 C26.54532882 -0.0398163 29.73850461 -0.0447004 32.93169612 -0.04949158 C40.46780021 -0.06058849 48.00385446 -0.06102364 55.53996277 -0.05497742 C63.30731881 -0.04894129 71.07449353 -0.06123898 78.84181863 -0.08254749 C85.51542591 -0.10018054 92.18897557 -0.10616202 98.86260527 -0.10290974 C102.84619588 -0.10109891 106.82965724 -0.10371273 110.8132267 -0.11762428 C114.56188005 -0.13022523 118.31025167 -0.12823729 122.05890083 -0.11521339 C124.08405928 -0.11173031 126.10922641 -0.12300986 128.13435364 -0.13478088 C141.23049664 -0.05920545 141.23049664 -0.05920545 146.80632019 4.72554016 C150.56603687 9.73406733 152.3749239 12.68402816 152.22428894 19.01069641 C152.20624207 19.99554016 152.18819519 20.98038391 152.16960144 21.99507141 C152.14639832 22.74272766 152.12319519 23.49038391 152.09928894 24.26069641 C151.27545212 24.26656265 150.4516153 24.27242889 149.60281372 24.2784729 C141.81995199 24.33649667 134.03740687 24.40862838 126.25482845 24.49641132 C122.25419079 24.54104383 118.25365329 24.5803153 114.25285339 24.60713196 C110.38823451 24.63323647 106.52400253 24.67368847 102.6596241 24.72388268 C101.18897393 24.7405033 99.71825692 24.75204741 98.24752617 24.75831032 C96.17939547 24.76800441 94.1122439 24.7961235 92.0443573 24.82832336 C90.86965378 24.83942642 89.69495026 24.85052948 88.48464966 24.86196899 C84.39120546 25.34409441 81.75464336 26.35854731 78.09928894 28.26069641 C75.42839727 32.26703392 75.39235022 35.55061069 76.09928894 40.26069641 C78.29760258 43.29285316 79.54892088 44.07724039 83.09928894 45.26069641 C85.32206476 45.37870047 87.54812445 45.43763967 89.77384949 45.46601868 C90.80030311 45.48106776 90.80030311 45.48106776 91.84749317 45.49642086 C94.06029703 45.52777714 96.27311881 45.55256508 98.48600769 45.57710266 C99.85307902 45.59550876 101.22014463 45.61434559 102.58720398 45.63362122 C107.65366447 45.70203522 112.7202348 45.76210957 117.78678894 45.82319641 C129.10991394 45.96757141 140.43303894 46.11194641 152.09928894 46.26069641 C152.09928894 71.01069641 152.09928894 95.76069641 152.09928894 121.26069641 C129.00130051 121.26069641 129.00130051 121.26069641 118.06022644 118.70942688 C116.06882053 118.25372418 114.07182913 117.84948894 112.06803894 117.45210266 C87.69395251 112.42788558 64.15082853 101.36766316 44.43132019 86.20991516 C39.13782406 82.10784141 39.13782406 82.10784141 32.78678894 80.51069641 C28.38653974 81.40566235 26.87771085 82.80871768 24.09928894 86.26069641 C23.76928894 86.59069641 23.43928894 86.92069641 23.09928894 87.26069641 C22.65577676 91.31439778 23.09350489 94.86377412 25.50553894 98.21382141 C55.65994187 126.69297974 102.14741758 141.01000738 142.66178894 142.82319641 C143.57508972 142.86638 144.4883905 142.9095636 145.42936707 142.95405579 C147.65256885 143.05881399 149.87585601 143.16098659 152.09928894 143.26069641 C153.01681013 157.77792051 153.01681013 157.77792051 148.53288269 163.70991516 C144.94322561 167.5930047 141.88508387 170.11866048 136.46676922 170.39491749 C135.4006733 170.39919097 134.33457739 170.40346445 133.23617554 170.40786743 C132.01225601 170.41502274 130.78833649 170.42217804 129.52732849 170.42955017 C128.1687472 170.43239038 126.81016564 170.43510211 125.45158386 170.43769836 C124.02246943 170.44396404 122.59335663 170.45061094 121.16424561 170.45761108 C116.46942782 170.47863966 111.77460974 170.48901162 107.07975769 170.49897766 C105.46307674 170.50302552 103.84639595 170.50714245 102.22971535 170.51132774 C94.63501111 170.53037595 87.04031659 170.54460834 79.44559306 170.55293971 C70.68014071 170.56271433 61.91494073 170.58904111 53.14957732 170.62944061 C46.37325615 170.65960053 39.59700734 170.67440842 32.82062036 170.67772073 C28.77382573 170.68007117 24.72730084 170.68903072 20.68057823 170.7141819 C16.87280919 170.73746601 13.06548742 170.74169476 9.25766563 170.73142052 C7.86208101 170.73092514 6.46647435 170.73724635 5.07095718 170.75097656 C-7.99313554 170.87229484 -7.99313554 170.87229484 -12.90071106 166.26069641 C-17.28098216 161.39372852 -19.14714905 157.92938976 -19.1681366 151.35998535 C-19.17666656 150.15296463 -19.18519653 148.94594391 -19.19398499 147.7023468 C-19.19328598 146.36787401 -19.19236293 145.03340133 -19.1912384 143.69892883 C-19.19722401 142.29099165 -19.20402963 140.88305776 -19.21159363 139.47512817 C-19.22925928 135.65268533 -19.23394929 131.83033204 -19.2352252 128.00785232 C-19.23664722 125.61840812 -19.24091782 123.22898666 -19.24621964 120.83954811 C-19.26472291 112.49969158 -19.27289002 104.15989896 -19.27131653 95.82002258 C-19.27011556 88.05262115 -19.29120822 80.2854978 -19.32280385 72.51816672 C-19.34898063 65.84455791 -19.35968322 59.17103982 -19.35840571 52.49738008 C-19.35789641 48.51374017 -19.36356113 44.53034731 -19.38476181 40.54675865 C-19.40416762 36.79804568 -19.40425308 33.04981478 -19.38972855 29.30108452 C-19.38665011 27.27590976 -19.40330114 25.25073485 -19.42060852 23.22563171 C-19.37324389 16.3629632 -19.13410853 11.78205284 -14.90071106 6.26069641 C-10.11536799 1.83425407 -6.51914596 0.01275628 0 0 Z " fill="#FDFDFD" transform="translate(752.9007110595703,7.7393035888671875)"/>
<path d="M0 0 C4.61507538 -0.06872197 9.23016489 -0.11644899 13.8455658 -0.1570282 C15.94994514 -0.17951775 18.05425178 -0.21058706 20.15837097 -0.25059509 C23.05135089 -0.30388154 25.94291979 -0.32568046 28.83631897 -0.33943176 C30.07211952 -0.37336784 30.07211952 -0.37336784 31.33288574 -0.4079895 C38.88855397 -0.38049316 43.23373595 2.67090448 48.71702576 7.60984802 C52.37679851 12.17834327 51.72065706 17.62230407 51.67079163 23.21281433 C51.67955322 24.42003647 51.68831482 25.62725861 51.69734192 26.87106323 C51.71554297 30.17128075 51.71132728 33.46992498 51.69544649 36.77005339 C51.68274657 40.2323279 51.69453944 43.69453729 51.70237732 47.15681458 C51.71146452 52.97231545 51.69951331 58.78749848 51.67567444 64.60295105 C51.64849006 71.31169645 51.65726069 78.01968138 51.68480647 84.72840822 C51.70755404 90.50107147 51.71066948 96.27350677 51.69761312 102.04620039 C51.68984608 105.48828236 51.68869983 108.9300079 51.70529556 112.3720665 C51.72252532 116.21381017 51.69859259 120.05471433 51.67079163 123.89640808 C51.68091278 125.02706192 51.69103394 126.15771576 51.70146179 127.32263184 C51.60923249 134.21799063 50.5568902 138.86990037 46.02381897 144.18400574 C40.75276257 149.07855811 36.37572726 149.36203501 29.43006897 149.50041199 C28.52758423 149.52141968 27.62509949 149.54242737 26.69526672 149.56407166 C23.63821717 149.63182945 20.58110371 149.69038968 17.52381897 149.74650574 C16.4663446 149.76635529 15.40887024 149.78620483 14.3193512 149.80665588 C5.55457839 149.96535338 -3.21057958 150.08314822 -11.97618103 150.18400574 C-12.7388327 150.19283783 -13.50148438 150.20166992 -14.2872467 150.21076965 C-25.23528239 150.33551166 -36.18306159 150.42175816 -47.13169861 150.47010803 C-50.52684469 150.48569305 -53.92173303 150.51054698 -57.3167572 150.54316711 C-61.3648518 150.58137361 -65.41256953 150.59961806 -69.46083832 150.60301971 C-70.96550876 150.60748384 -72.47017652 150.61877356 -73.97473907 150.63733673 C-76.05150863 150.66167939 -78.12685156 150.66086185 -80.20372009 150.65397644 C-81.95606964 150.6627758 -81.95606964 150.6627758 -83.74382019 150.67175293 C-88.82655771 149.90479309 -91.90574117 147.37016882 -95.28868103 143.62150574 C-97.74089385 140.07942056 -98.10390155 137.4071614 -98.13008118 133.20751953 C-98.13868164 132.18001587 -98.1472821 131.15251221 -98.15614319 130.09387207 C-98.16040314 128.96708542 -98.16466309 127.84029877 -98.16905212 126.67936707 C-98.18131836 124.89845169 -98.18131836 124.89845169 -98.1938324 123.08155823 C-98.21869316 119.1430648 -98.23535894 115.20457892 -98.24961853 111.26603699 C-98.25497996 109.90818971 -98.26035747 108.5503425 -98.26575089 107.19249535 C-98.28737678 101.54183402 -98.30611126 95.89117551 -98.31737328 90.24048328 C-98.33359822 82.15387807 -98.36674309 74.0677544 -98.42377412 65.98133069 C-98.46254191 60.28947256 -98.48201412 54.59774283 -98.48729384 48.90575618 C-98.49093866 45.50936794 -98.50286518 42.11349368 -98.53539658 38.71724892 C-98.56701146 34.92299981 -98.56708927 31.12996329 -98.55967712 27.33561707 C-98.57608246 26.21895157 -98.59248779 25.10228607 -98.60939026 23.95178223 C-98.54760184 16.21491441 -96.93640504 11.1566573 -91.42719078 5.63015461 C-86.94746198 1.69720197 -83.62672554 1.05916334 -77.81968689 0.97868347 C-76.53811203 0.95876846 -75.25653717 0.93885345 -73.93612671 0.91833496 C-72.52109426 0.90129547 -71.10606023 0.88438765 -69.69102478 0.86759949 C-68.21621197 0.84668822 -66.74140426 0.82541504 -65.26660156 0.80380249 C-60.48237796 0.73567413 -55.69805446 0.67796915 -50.91368103 0.62150574 C-49.27802012 0.60179978 -47.64235931 0.58208541 -46.00669861 0.56236267 C-39.41302381 0.48365273 -32.81932996 0.4074426 -26.22554016 0.338974 C-17.48318828 0.24814183 -8.74173647 0.13907747 0 0 Z " fill="#020202" transform="translate(1042.9761810302734,584.8159942626953)"/>
<path d="M0 0 C0.79172607 -0.00539795 1.58345215 -0.0107959 2.39916992 -0.01635742 C14.03616395 0.12355416 25.99611924 4.21068453 35.25 11.3125 C35.78753906 11.70695312 36.32507812 12.10140625 36.87890625 12.5078125 C46.50087227 20.04179037 52.91532758 30.74050868 54.90234375 42.74609375 C55.36593987 47.50186067 55.46886643 52.22369519 55.5 57 C55.50926514 57.89090332 55.51853027 58.78180664 55.52807617 59.69970703 C55.4685643 72.24387692 51.52382023 83.81704188 43.25 93.3125 C42.60160156 94.06660156 41.95320313 94.82070313 41.28515625 95.59765625 C35.71312989 101.63317847 29.79632688 105.16422204 22.25 108.3125 C21.08855469 108.85132813 19.92710938 109.39015625 18.73046875 109.9453125 C6.43308822 114.46188451 -12.94642602 113.32830303 -24.85546875 107.98046875 C-39.21319382 99.7068539 -49.19346201 88.88618686 -54.4921875 73.1015625 C-58.39112617 57.87967866 -56.64476037 40.78996507 -49.0625 27.125 C-43.42968465 18.42102653 -36.74706079 11.48322459 -27.75 6.3125 C-26.821875 5.755625 -25.89375 5.19875 -24.9375 4.625 C-16.68994846 1.22894937 -8.86755704 0.03702349 0 0 Z " fill="#FDFDFD" transform="translate(1215.75,407.6875)"/>
<path d="M0 0 C3.37506602 3.79694928 4.7476527 8.25828338 6.5 12.9375 C15.57257519 36.25051893 28.3340459 57.36144435 45 76 C46.10408203 77.28583984 46.10408203 77.28583984 47.23046875 78.59765625 C56.12673834 88.82269471 65.94717429 97.7535077 77.23876953 105.25952148 C80.01004743 107.16969485 81.78435402 108.42636465 82.98828125 111.62890625 C83.00820325 115.65979125 81.4120789 118.56425498 78.6015625 121.421875 C73.76979842 125.59141761 70.4568542 127.24711476 64.09928894 127.26742554 C62.89226822 127.27595551 61.6852475 127.28448547 60.44165039 127.29327393 C59.1071776 127.29257492 57.77270492 127.29165187 56.43823242 127.29052734 C55.03029524 127.29651295 53.62236135 127.30331857 52.21443176 127.31088257 C48.39198892 127.32854822 44.56963562 127.33323823 40.7471559 127.33451414 C38.35771171 127.33593617 35.96829025 127.34020676 33.5788517 127.34550858 C25.23899516 127.36401185 16.89920255 127.37217896 8.55932617 127.37060547 C0.79192474 127.3694045 -6.97519861 127.39049716 -14.74252969 127.4220928 C-21.4161385 127.44826957 -28.08965659 127.45897216 -34.76331633 127.45769465 C-38.74695624 127.45718536 -42.7303491 127.46285007 -46.71393776 127.48405075 C-50.46265073 127.50345656 -54.21088163 127.50354202 -57.95961189 127.48901749 C-59.98478665 127.48593905 -62.00996156 127.50259008 -64.0350647 127.51989746 C-71.93324683 127.46538594 -76.92023626 126.90939998 -82.77734375 121.296875 C-83.8515625 119.86458333 -84.92578125 118.43229167 -86 117 C-82.46828009 113.26402017 -78.76211626 110.31672732 -74.5 107.4375 C-67.56444816 102.61812874 -61.42915398 97.19190419 -55.37207031 91.32080078 C-54.22221851 90.21391497 -53.04747922 89.13296185 -51.8671875 88.05859375 C-44.60218954 81.26475675 -38.84169673 73.00663572 -33 65 C-32.54834473 64.38237793 -32.09668945 63.76475586 -31.63134766 63.12841797 C-19.69970989 46.59319875 -10.97139551 28.10316189 -3.80419922 9.08203125 C-2.6201132 6.01649221 -1.31710368 3.0105227 0 0 Z " fill="#FDFDFD" transform="translate(822,423)"/>
<path d="M0 0 C10.456875 0.020625 20.91375 0.04125 31.6875 0.0625 C31.6875 31.7425 31.6875 63.4225 31.6875 96.0625 C0.62961502 97.21279204 0.62961502 97.21279204 -13.26171875 97.16015625 C-14.79254611 97.1582782 -16.32337408 97.15686093 -17.85420227 97.15586853 C-21.77474803 97.15215202 -25.69525332 97.14242316 -29.61578369 97.13116455 C-33.65986586 97.12070831 -37.70395493 97.11632054 -41.74804688 97.11132812 C-49.60288251 97.10078409 -57.45768547 97.08384921 -65.3125 97.0625 C-65.33614989 89.12294857 -65.35367298 81.18341294 -65.36431217 73.2438345 C-65.36943016 69.55324966 -65.3763128 65.86268967 -65.38793945 62.17211914 C-65.45049664 41.77965702 -65.1172923 21.44006819 -64.3125 1.0625 C-42.85826654 0.13557195 -21.47234144 -0.0604493 0 0 Z " fill="#FDFDFD" transform="translate(1036.3125,611.9375)"/>
<path d="M0 0 C15.31000249 12.06948232 26.27920266 30.17755325 28.64453125 49.6796875 C30.36990624 73.09839755 27.2359576 95.18233223 11.64453125 113.6796875 C2.54993959 124.16857196 -9.00034546 132.54148028 -22.35546875 136.6796875 C-23.21011719 136.97617187 -24.06476563 137.27265625 -24.9453125 137.578125 C-32.74844748 139.86145846 -40.3941266 139.96260887 -48.48046875 139.9921875 C-50.12499023 140.00040527 -50.12499023 140.00040527 -51.80273438 140.00878906 C-73.3534991 139.82088402 -91.18077482 132.00612837 -106.35546875 116.6796875 C-123.33803303 98.52803365 -127.27874342 76.47614735 -126.52587891 52.5625 C-125.57191751 36.42442533 -117.1113538 20.46936927 -106.35546875 8.6796875 C-105.83855469 8.07125 -105.32164063 7.4628125 -104.7890625 6.8359375 C-78.96597532 -21.64064986 -29.89556897 -21.40626288 0 0 Z M-91.35546875 24.6796875 C-103.30582539 38.83447886 -105.33542663 53.85534242 -104.35546875 71.6796875 C-102.46416459 86.2811967 -94.95958828 98.8011521 -83.53125 107.9375 C-72.53220447 115.73028782 -61.93519622 118.42770357 -48.54296875 118.3046875 C-47.31481445 118.29775879 -46.08666016 118.29083008 -44.82128906 118.28369141 C-31.77439778 117.97107725 -21.14735349 114.65558184 -11.35546875 105.6796875 C-10.6078125 105.03386719 -9.86015625 104.38804687 -9.08984375 103.72265625 C-3.0310146 98.15535463 0.43718209 92.2090711 3.64453125 84.6796875 C4.00675781 83.85984375 4.36898438 83.04 4.7421875 82.1953125 C9.71259314 68.33842406 7.83432854 48.86470516 2.01953125 35.5546875 C-5.1476975 22.64273341 -15.00608284 15.18705747 -28.35546875 9.6796875 C-29.57169922 9.14601563 -29.57169922 9.14601563 -30.8125 8.6015625 C-52.14066285 0.86969394 -76.2407897 8.98849499 -91.35546875 24.6796875 Z " fill="#020202" transform="translate(1264.35546875,401.3203125)"/>
<path d="M0 0 C24.14248545 3.37968965 44.45430247 14.83771997 59.5703125 34.22265625 C63.83265448 39.93413032 63.83265448 39.93413032 65.56542969 42.73754883 C67.0265407 45.12159733 67.0265407 45.12159733 69.06738281 47.65893555 C77.67952633 60.4275153 75.91517735 75.47633538 75.54931641 90.234375 C75.46647493 93.9351744 75.43073069 97.63642514 75.390625 101.33789062 C75.30563125 108.55980917 75.16967975 115.77952081 75 123 C67.21950936 123.13970859 59.43931863 123.24597607 51.6578846 123.31087303 C48.04360421 123.34203881 44.43018888 123.38423316 40.81640625 123.45263672 C37.32147745 123.51836809 33.8273746 123.55381666 30.33187485 123.56926346 C28.36543242 123.5855635 26.39931725 123.63231576 24.43338013 123.67977905 C17.27384119 123.68243745 12.2175514 122.81826467 6.07467651 119.07315063 C0.85059442 113.85291073 -0.45484186 108.31828799 -0.49768066 101.08735657 C-0.48329956 100.09688828 -0.46891846 99.10641998 -0.45410156 98.0859375 C-0.45468567 97.0216301 -0.45526978 95.95732269 -0.45587158 94.86076355 C-0.45309904 91.3651699 -0.42204507 87.87044353 -0.390625 84.375 C-0.38315969 81.94263169 -0.37746813 79.51025735 -0.37347412 77.07788086 C-0.3582408 70.69255818 -0.31897823 64.30760252 -0.2746582 57.92242432 C-0.23365616 51.40015629 -0.21545254 44.87782866 -0.1953125 38.35546875 C-0.15248225 25.5701564 -0.08503309 12.78509777 0 0 Z " fill="#FCFCFC" transform="translate(935,56)"/>
<path d="M0 0 C1.21261505 -0.00860046 2.4252301 -0.01720093 3.67459106 -0.02606201 C5.02055316 -0.03049713 6.36651571 -0.0347955 7.71247864 -0.03897095 C9.1284963 -0.04687377 10.54451196 -0.05514284 11.96052551 -0.06375122 C16.61325665 -0.08995356 21.26599669 -0.10527848 25.91877747 -0.11953735 C27.52179279 -0.12489804 29.12480805 -0.13027555 30.72782326 -0.13566971 C37.39759511 -0.15729707 44.06736455 -0.17603246 50.73716259 -0.1872921 C60.28812261 -0.20352276 69.83867526 -0.23668038 79.38948172 -0.29369295 C86.10893225 -0.33243276 92.82827401 -0.35192963 99.54783326 -0.35721266 C103.55899253 -0.36086103 107.56971713 -0.37282656 111.58075523 -0.4053154 C115.35740993 -0.43546716 119.13336861 -0.44168309 122.9101181 -0.42993164 C124.29197349 -0.42971148 125.67386183 -0.43796864 127.05560493 -0.45558548 C134.89288504 -0.55002399 141.24107297 -0.4231677 147.18830872 5.15390015 C152.59774286 11.83740824 151.56923684 20.02743357 151.18830872 28.15390015 C150.10033997 28.3240564 149.01237122 28.49421265 147.89143372 28.66952515 C117.82056955 33.5468098 92.74149378 48.362414 74.6365509 73.09628296 C71.15398357 77.9659651 71.15398357 77.9659651 68.18830872 83.15390015 C67.52830872 83.15390015 66.86830872 83.15390015 66.18830872 83.15390015 C65.06721497 81.4234314 65.06721497 81.4234314 63.75080872 78.96640015 C50.2402136 55.72554675 27.23041013 37.86563221 1.39143372 30.62533569 C-5.26075244 28.89766703 -11.97781623 27.87952555 -18.81169128 27.15390015 C-18.89334624 24.9461921 -18.95117616 22.73759589 -18.99919128 20.52890015 C-19.05139832 18.68425171 -19.05139832 18.68425171 -19.10466003 16.80233765 C-18.72069912 12.02074439 -17.34788194 8.81927047 -14.09294128 5.2906189 C-13.50512878 4.81237671 -12.91731628 4.33413452 -12.31169128 3.84140015 C-11.72387878 3.35026733 -11.13606628 2.85913452 -10.53044128 2.3531189 C-7.12044762 -0.02612668 -4.02290948 0.02122559 0 0 Z " fill="#FDFDFD" transform="translate(953.8116912841797,7.846099853515625)"/>
<path d="M0 0 C0.07014303 13.97778953 0.12281449 27.95555169 0.15543652 41.93348122 C0.17109333 48.42397795 0.19233225 54.91435646 0.22631836 61.40478516 C0.2589107 67.66822853 0.2768529 73.93155817 0.28463173 80.1950798 C0.29017541 82.58489141 0.30100079 84.97469679 0.31719017 87.36445999 C0.33896228 90.71137197 0.34196695 94.05781377 0.34057617 97.40478516 C0.351362 98.39309326 0.36214783 99.38140137 0.3732605 100.3996582 C0.34510641 106.6597663 -0.45518605 110.89428725 -4.53869629 115.87783813 C-10.92550554 121.20118024 -17.32957889 120.7746846 -25.34375 120.5859375 C-26.72235251 120.57472741 -28.10097916 120.5661958 -29.47961426 120.56021118 C-33.08381772 120.53745388 -36.6865381 120.47865063 -40.29016113 120.4119873 C-43.97709089 120.35027711 -47.66426362 120.32313546 -51.3515625 120.29296875 C-58.56837976 120.22888876 -65.78398099 120.12667578 -73 120 C-73.16350169 112.28867356 -73.28722193 104.57776672 -73.3626852 96.86513329 C-73.39893853 93.28217945 -73.44795706 89.70042676 -73.52807617 86.11816406 C-73.60516132 82.64912071 -73.6461989 79.18121867 -73.6641407 75.71138382 C-73.6830253 73.76939414 -73.73750158 71.82785235 -73.79307556 69.88656616 C-73.80115771 51.23403776 -61.24954192 36.98451443 -49 24 C-48.41476562 23.36191406 -47.82953125 22.72382812 -47.2265625 22.06640625 C-35.43095196 9.6339435 -17.37837728 -0.25774944 0 0 Z " fill="#FEFEFE" transform="translate(1105,58)"/>
<path d="M0 0 C1.19716141 -0.00852997 2.39432281 -0.01705994 3.62776184 -0.02584839 C4.93796799 -0.02494202 6.24817413 -0.02403564 7.5980835 -0.02310181 C8.99454609 -0.02908753 10.39100538 -0.03589318 11.78746033 -0.04345703 C15.57897971 -0.06112312 19.37040881 -0.06581275 23.16196537 -0.0670886 C25.53265635 -0.06851079 27.90332442 -0.07278174 30.2740097 -0.07808304 C38.55018062 -0.09658763 46.82628711 -0.1047534 55.10247803 -0.10317993 C62.80737649 -0.10197946 70.51199441 -0.12306196 78.21682191 -0.15466726 C84.8386422 -0.18085838 91.46037106 -0.19154599 98.08224273 -0.19026911 C102.03405731 -0.18976017 105.98562273 -0.19540525 109.93738556 -0.21662521 C113.65737555 -0.23605481 117.37688001 -0.23610032 121.09688759 -0.22159195 C123.10397836 -0.21851892 125.11106941 -0.23514856 127.11808777 -0.25247192 C134.73919466 -0.19956632 140.97142255 0.17207212 146.69072342 5.78554726 C150.38850482 10.05795296 151.26897772 12.46973319 151.28442383 18.01028442 C151.29013397 19.23282928 151.29584412 20.45537415 151.30172729 21.71496582 C151.30297272 23.07717885 151.3040978 24.439392 151.30511475 25.80160522 C151.3097421 27.23057178 151.31476665 28.6595371 151.32015991 30.08850098 C151.33329587 33.97709067 151.33973145 37.86566309 151.34417057 41.75427151 C151.34710001 44.18355734 151.35120462 46.61283844 151.35567474 49.04212189 C151.36935423 56.64217188 151.37901808 64.24221107 151.38287663 71.84227252 C151.38735549 80.61617898 151.4048934 89.38992951 151.43387723 98.16378856 C151.45549867 104.94433688 151.4655812 111.72484136 151.46691775 118.50542378 C151.46796566 122.55553378 151.4738701 126.60549728 151.49173737 130.65557098 C151.50822561 134.46737698 151.51037 138.2789265 151.50159836 142.09075546 C151.50082832 143.48794365 151.50516638 144.88514565 151.51505661 146.28229904 C151.52779074 148.19370134 151.52010227 150.10520683 151.51147461 152.01663208 C151.51294117 153.08515789 151.51440773 154.1536837 151.51591873 155.25458908 C151.00319084 159.40788953 149.50623826 162.77075992 146.67913818 165.87680054 C141.64758978 169.77391495 138.65047991 171.5143817 132.24327087 171.53485107 C131.03625015 171.54338104 129.82922943 171.55191101 128.58563232 171.56069946 C127.25115954 171.56000046 125.91668685 171.55907741 124.58221436 171.55795288 C123.17427718 171.56393848 121.76634328 171.57074411 120.3584137 171.57830811 C116.53597085 171.59597376 112.71361756 171.60066376 108.89113784 171.60193968 C106.50169364 171.6033617 104.11227218 171.6076323 101.72283363 171.61293411 C93.3829771 171.63143739 85.04318449 171.63960449 76.70330811 171.63803101 C68.93590668 171.63683004 61.16878332 171.6579227 53.40145224 171.68951833 C46.72784343 171.71569511 40.05432534 171.72639769 33.3806656 171.72512019 C29.3970257 171.72461089 25.41363283 171.73027561 21.43004417 171.75147629 C17.68133121 171.7708821 13.9331003 171.77096756 10.18437004 171.75644302 C8.15919529 171.75336458 6.13402037 171.77001562 4.10891724 171.787323 C-3.79331827 171.73278351 -8.6463056 171.12790177 -14.59820557 165.66976929 C-18.13704479 161.09368408 -18.98014418 158.15119562 -19.00318909 152.44900513 C-19.01034439 151.23494492 -19.01749969 150.0208847 -19.02487183 148.77003479 C-19.02771204 147.42248561 -19.03042378 146.07493615 -19.03302002 144.72738647 C-19.0392858 143.30974664 -19.04593271 141.89210845 -19.05293274 140.47447205 C-19.07396249 135.81692649 -19.08433433 131.15938064 -19.09429932 126.50180054 C-19.09834732 124.89752434 -19.10246426 123.29324832 -19.1066494 121.68897247 C-19.12569895 114.15139735 -19.13993029 106.61383201 -19.14826137 99.07623744 C-19.15803231 90.37984472 -19.18434892 81.68370664 -19.22476226 72.98740363 C-19.25493833 66.26287107 -19.26973166 59.53841144 -19.27304238 52.81381249 C-19.27539125 48.79884304 -19.2843301 44.78414569 -19.30950356 40.76924896 C-19.33281551 36.99020302 -19.33700524 33.21160773 -19.32674217 29.43250847 C-19.32624745 28.04863166 -19.33254932 26.66473244 -19.34629822 25.28092384 C-19.46833498 12.26558506 -19.46833498 12.26558506 -14.85601807 6.26742554 C-10.09075177 1.85955421 -6.49236975 0.02091434 0 0 Z M65.4298439 12.32490158 C58.87935435 12.35459702 52.32909668 12.40064757 45.77878952 12.45775223 C41.71766771 12.49296275 37.65671029 12.52236547 33.59545898 12.537323 C29.72909408 12.55230032 25.86336053 12.58678224 21.99727821 12.63548279 C20.56346341 12.65034283 19.1295607 12.6584819 17.69566917 12.65937805 C9.00252489 12.66975278 3.03243119 12.79287244 -3.56304932 18.82992554 C-7.1217261 23.45746283 -9.10321979 26.49056941 -9.11671448 32.37762451 C-9.12379929 33.40939316 -9.13088409 34.4411618 -9.13818359 35.50419617 C-9.13570618 36.63052963 -9.13322876 37.7568631 -9.13067627 38.91732788 C-9.1357872 40.10796341 -9.14089813 41.29859894 -9.14616394 42.52531433 C-9.15768226 45.7878205 -9.16013341 49.0501691 -9.15760064 52.31269026 C-9.15653018 55.03873997 -9.16141631 57.76476629 -9.16620606 60.49081099 C-9.17729898 66.92417949 -9.17774017 73.3574896 -9.17169189 79.79086304 C-9.16565426 86.42104054 -9.17795811 93.05100571 -9.19926196 99.68114698 C-9.21689485 105.37895253 -9.22287659 111.0766906 -9.21962422 116.77452242 C-9.21781356 120.17514292 -9.22042543 123.57561201 -9.23433876 126.97620773 C-9.24666699 130.77054978 -9.23993237 134.56440003 -9.22833252 138.35873413 C-9.23597626 139.48101913 -9.24362 140.60330414 -9.25149536 141.75959778 C-9.20843126 148.12872624 -8.87741377 153.030765 -4.32086182 157.91195679 C0.43408368 161.54809158 2.49544326 162.39278714 8.46234131 162.39682007 C9.11477405 162.39854123 9.76720678 162.40026239 10.43941021 162.40203571 C12.62220894 162.40639212 14.80493208 162.40341224 16.98773193 162.40023804 C18.53145881 162.40138015 20.07518548 162.40285672 21.61891174 162.40464783 C25.76832712 162.40766823 29.91770207 162.40341822 34.06711197 162.39660263 C36.63532731 162.39243957 39.20354183 162.38947384 41.77175903 162.38671875 C62.27393479 162.36178436 82.77874468 162.32269974 103.27874756 162.00296021 C105.38594072 161.97110785 107.49320983 161.94391664 109.6005249 161.92153931 C112.48657763 161.88879594 115.37162127 161.83709293 118.25726318 161.77914429 C119.08192581 161.77274429 119.90658844 161.7663443 120.75624084 161.75975037 C126.24073597 161.61722104 130.54796418 160.63030578 134.75335693 156.80258179 C138.38441961 152.11453169 140.38389271 149.06869409 140.43159485 143.09475708 C140.45089302 141.52619713 140.45089302 141.52619713 140.47058105 139.9259491 C140.4762912 138.21310982 140.4762912 138.21310982 140.4821167 136.46566772 C140.4936528 135.25873764 140.5051889 134.05180756 140.51707458 132.80830383 C140.54549466 129.50019968 140.56458853 126.19234887 140.57729077 122.88416576 C140.58538548 120.81499116 140.59556645 118.74583633 140.60630608 116.67667389 C140.63901585 110.19576388 140.66291823 103.71490214 140.67511994 97.23392081 C140.68936595 89.76543399 140.73321249 82.29789358 140.80262142 74.82972026 C140.85448808 69.04865756 140.8792997 63.26786327 140.88394207 57.48657155 C140.88733263 54.03747731 140.90206753 50.58934071 140.94522285 47.1404953 C140.99257414 43.28894521 140.98383492 39.4386017 140.97039795 35.58676147 C140.99242279 34.45296555 141.01444763 33.31916962 141.03713989 32.15101624 C140.95607954 25.30374841 139.81509076 21.66173724 134.92698765 16.77763367 C129.53052991 12.20682704 124.918498 11.83963461 118.15179443 11.93930054 C117.24539719 11.94062988 116.33899994 11.94195923 115.40513611 11.94332886 C112.35945144 11.95238073 109.31449213 11.98414738 106.26898193 12.01742554 C104.10647085 12.03220375 101.94395416 12.04617915 99.78143311 12.05941772 C94.96545651 12.09269496 90.14973985 12.13797328 85.33392334 12.18930054 C78.69924349 12.25764163 72.06479834 12.29582124 65.4298439 12.32490158 Z " fill="#F8F8F8" transform="translate(953.8560180664063,572.7325744628906)"/>
<path d="M0 0 C1.28117706 0.00007553 2.56235413 0.00015106 3.88235474 0.00022888 C5.28599079 0.00533591 6.68962645 0.01055191 8.09326172 0.01586914 C9.52529857 0.01773394 10.95733606 0.01915755 12.38937378 0.02015686 C16.16068276 0.0239772 19.93195329 0.03380337 23.70324707 0.04486084 C27.55069458 0.05508534 31.39814829 0.05965671 35.24560547 0.06469727 C42.79640425 0.07542606 50.34717135 0.0924967 57.89794922 0.11352539 C57.11647727 4.11061076 56.32811797 8.10630853 55.53857422 12.10180664 C55.3189502 13.22558716 55.09932617 14.34936768 54.87304688 15.50720215 C46.15063632 59.51353365 22.44708997 101.25657831 -12.10205078 130.11352539 C-13.75765239 131.13174005 -15.42277077 132.13485465 -17.10205078 133.11352539 C-17.19558495 117.45802436 -17.26607433 101.80259904 -17.30929947 86.14688778 C-17.32990514 78.87728968 -17.35798727 71.60786541 -17.40380859 64.33837891 C-17.44373784 58.00062887 -17.4694981 51.66300476 -17.47840476 45.32513243 C-17.48360932 41.97071047 -17.49579941 38.61664871 -17.52497101 35.26234245 C-17.55401101 31.51321945 -17.55800633 27.7648424 -17.55615234 24.015625 C-17.57053345 22.90935257 -17.58491455 21.80308014 -17.59973145 20.6632843 C-17.56537754 14.24231368 -16.93760163 10.32992825 -13.10205078 5.11352539 C-8.52867785 0.97571178 -6.10331835 -0.01196729 0 0 Z " fill="#FEFEFE" transform="translate(752.10205078125,379.886474609375)"/>
<path d="M0 0 C7.4585735 -0.06965856 14.9170763 -0.1228914 22.37590981 -0.15543652 C25.83975378 -0.17106042 29.30337439 -0.19223795 32.76708984 -0.22631836 C36.75355309 -0.2652946 40.7399274 -0.27973637 44.7265625 -0.29296875 C45.96427399 -0.30845261 47.20198547 -0.32393646 48.47720337 -0.33988953 C55.22357262 -0.3412065 60.46391623 -0.3009048 65.64453125 4.53515625 C68.70945052 8.5431276 70.12575333 10.56446676 70.12025452 15.56838989 C70.12231651 17.01133423 70.12231651 17.01133423 70.12442017 18.48342896 C70.11902725 20.07161942 70.11902725 20.07161942 70.11352539 21.69189453 C70.11367142 22.80409363 70.11381744 23.91629272 70.1139679 25.06219482 C70.1132691 28.7524203 70.10547824 32.4425958 70.09765625 36.1328125 C70.09579195 38.68586194 70.0943681 41.23891174 70.09336853 43.79196167 C70.08993553 49.83386916 70.08204747 55.87575508 70.07201904 61.91765392 C70.06085045 68.79543876 70.05534557 75.67322445 70.05032361 82.55101609 C70.03986466 96.7006874 70.02226986 110.85034271 70 125 C64.46826564 122.37089848 60.44091911 118.15788633 56 114 C55.32582031 113.37996094 54.65164063 112.75992188 53.95703125 112.12109375 C27.0371636 86.4223335 3.39549902 43.22527064 0.45239258 5.7590332 C0.3664534 4.68007278 0.28051422 3.60111237 0.19197083 2.48945618 C0.12862045 1.66793564 0.06527008 0.8464151 0 0 Z " fill="#FEFEFE" transform="translate(835,380)"/>
<path d="M0 0 C1.7102108 0.00128403 1.7102108 0.00128403 3.45497131 0.00259399 C17.61583206 0.01401328 31.77666204 0.03492084 45.9375 0.0625 C45.9375 11.2825 45.9375 22.5025 45.9375 34.0625 C-8.5125 34.0625 -62.9625 34.0625 -119.0625 34.0625 C-119.0625 23.1725 -119.0625 12.2825 -119.0625 1.0625 C-110.31263845 0.88367071 -101.56285347 0.71378197 -92.8125 0.5625 C-91.78287077 0.54468412 -91.78287077 0.54468412 -90.73244095 0.52650833 C-60.4889721 0.01039615 -30.24723386 -0.02287125 0 0 Z " fill="#FDFDFD" transform="translate(802.0625,977.9375)"/>
<path d="M0 0 C10.89 0 21.78 0 33 0 C33 43.56 33 87.12 33 132 C22.11 132 11.22 132 0 132 C0 88.44 0 44.88 0 0 Z " fill="#FEFEFE" transform="translate(330,980)"/>
</svg>
